<svg xmlns="http://www.w3.org/2000/svg" version="1.1" xmlns:xlink="http://www.w3.org/1999/xlink" xmlns:svgjs="http://svgjs.dev/svgjs" width="1000" height="1125" viewBox="0 0 1000 1125"><g transform="matrix(1,0,0,1,1.7053025658242404e-13,0)"><svg viewBox="0 0 320 360" data-background-color="#8dbdff" preserveAspectRatio="xMidYMid meet" height="1125" width="1000" xmlns="http://www.w3.org/2000/svg" xmlns:xlink="http://www.w3.org/1999/xlink"><g id="tight-bounds" transform="matrix(1,0,0,1,0,0)"><svg viewBox="0 0 320 360" height="360" width="320"><g><svg></svg></g><g><svg viewBox="0 0 320 360" height="360" width="320"><g><path xmlns="http://www.w3.org/2000/svg" d="M20.961 227.22l3.726 4.658-1.863-6.056c-0.466-2.795-3.726 0.466-1.863 1.398M25.153 224.425c1.397 2.329 2.795 4.658 2.795 6.987 0 3.261 2.795 4.658 5.123 5.589-3.261-3.726-5.124-13.974-7.918-12.576M204.017 26.929c7.918 0 15.371-0.932 23.756 0.931 20.495 5.124 37.729 15.371 49.374 29.811l32.606 52.169c1.397 13.042 4.192 27.482 3.726 43.319 3.261 0 2.795-4.658 6.521-5.59-3.726 9.316-5.59 20.961-6.521 34.469-2.329-7.453 0-18.632 0.466-24.687-3.261 5.124-5.124 1.397-5.124-0.932 0.466-3.726-1.397-3.261-2.795-4.658-5.124-4.658-8.384-9.782-12.11-17.7 2.329-6.055 2.795-14.905-4.658-19.563-2.329-1.397-5.124-3.726-6.521-7.453-1.863-5.124-5.124-11.179-4.193-19.097 0.466-2.329-6.987 5.124-11.179 1.863-18.166-12.576-36.332-27.016-58.224-39.127-11.645 0-20.029-4.192-24.221-9.316-3.726-4.658-0.932-10.713 4.658-11.179 3.261 0 6.987-0.932 9.782 0.932 0.466-1.863 2.329-4.192 4.657-4.192M157.904 16.215l0.932 0.466c4.658 0.932 6.987 7.453 12.11 5.124 0 3.261 0.466 6.521-0.466 8.85-1.397 3.726-5.59 3.726-8.85 3.726-31.208-1.863-49.374 11.179-68.471 22.358-5.124 3.261-10.713 5.59-14.906 9.782-20.029 18.632-41.921 35.866-47.045 70.335l-4.192 38.195c-0.466 4.192-5.124 8.384-4.192 13.508l3.26 22.824c-3.261-3.261-5.124 0.932-4.192 2.795 0.466 1.397 2.329 6.055 5.124 1.863 3.726 6.987 7.453 20.495 12.576 26.55 15.837 18.632 36.332 35.4 53.101 52.169 4.192-0.932 7.453-0.932 8.384-3.727 1.397 2.795-1.397 5.59-3.726 6.056 7.453 4.658 15.837 8.85 27.016 9.781 14.44 0.932 27.948 3.261 40.524 6.522 6.521-1.863 13.042-2.795 20.029-3.261 2.329 0 3.726-3.726 6.521-4.658l0.466-4.658c2.795 4.192 2.329-1.397 0.466-4.192 3.261 2.795 4.192 5.124 5.589 6.987 0-1.397 3.726-6.521 3.727-0.466l0.931-6.055c1.397-0.932 1.863 5.124 3.261 0.931 1.397-4.192 4.192-0.932 6.987-2.329-0.932 1.863-0.466 5.59 2.794 3.261l3.727-3.261c2.329 5.59 6.055 3.261 7.918 2.329 20.495-13.042 40.99-28.413 60.553-43.784l-0.466 6.055 2.329-7.453c2.329 2.329 4.192 0.466 5.124-0.931 2.795-4.658 6.521-9.316 12.577-13.508-7.453 20.029-16.303 35.866-27.482 48.908l-4.658 5.59c0 3.261-0.932 7.453-4.658 7.918-1.863 0.466-5.59-0.932-8.384 1.863-1.397 1.863 3.261 5.59-0.466 2.795-3.261-2.329-6.521 0-10.248 0.932-2.795 0.932 1.863 3.726 2.795 5.589 0.932 1.863 1.863 3.726 1.398 6.056l-5.124-5.59c-6.055 3.261-9.782 9.316-14.906 13.974-2.329 1.863-1.397 5.124-1.397 7.918-3.261 0-6.987-0.932-8.85 0.932-1.397 1.863-0.932 4.658-0.932 7.453-4.658-0.466-5.124-7.453-9.315-6.056-4.192 0.932-8.85 1.397-12.577 3.727 2.795 5.59-4.658 2.329-3.726 3.26-6.987-4.192-13.042-7.453-20.495-4.658-15.837-5.124-35.4-2.795-49.84-0.931 0-2.329 0.466-4.658-0.466-5.124-0.932 2.329-3.726 1.397-3.26 1.397-8.85-6.055-17.7-9.782-27.016-14.905-8.384 0.932-16.303-3.261-18.632-5.59-6.521-6.055-13.974-2.795-20.029-4.192-13.042-3.261-17.7-16.769-19.098-26.084-0.932-4.658-4.658-6.521-6.055-6.056-6.055-19.563-15.371-37.263-22.824-55.429-1.863-4.658-1.397-9.316-1.397-14.44 2.329 0.932 4.658 0.466 4.192-2.794-2.329-15.371-7.918-27.016-13.974-38.195 3.261-15.837 3.726-34.469 11.179-48.443 6.521-12.576 18.632-19.098 27.016-29.811 2.795-3.726 2.795-8.85 5.59-12.11 9.316-9.316 18.632-19.098 28.879-27.482 4.658-3.726 10.247 0 17.234-1.397 2.329-8.384 11.645-15.837 20.495-13.508 3.726 0.932 11.179-8.85 13.508-9.782 3.726-1.397 1.863 3.726 1.863 6.987 8.85-6.987 20.961-10.713 32.14-14.906" fill="#0080ff" fill-rule="nonzero" stroke="none" stroke-width="1" stroke-linecap="butt" stroke-linejoin="miter" stroke-miterlimit="10" stroke-dasharray="" stroke-dashoffset="0" font-family="none" font-weight="none" font-size="none" text-anchor="none" style="mix-blend-mode: normal" data-fill-palette-color="tertiary"></path></g><g transform="matrix(1,0,0,1,104.72821130071759,90)"><svg viewBox="0 0 110.54357739856482 180" height="180" width="110.54357739856482"><g><svg viewBox="0 0 110.54357739856482 180" height="180" width="110.54357739856482"><g><svg viewBox="0 0 130.1877412398922 211.9869283648209" height="180" width="110.54357739856482"><g><svg viewBox="0 0 130.1877412398922 211.9869283648209" height="211.9869283648209" width="130.1877412398922"><g><svg viewBox="0 0 130.1877412398922 211.9869283648209" height="211.9869283648209" width="130.1877412398922"><g><svg viewBox="0 0 130.1877412398922 178.88760000000002" height="178.88760000000002" width="130.1877412398922"><g transform="matrix(1,0,0,1,0,0)"><svg width="130.1877412398922" viewBox="4.849999904632568 -37.099998474121094 27 37.099998474121094" height="178.88760000000002" data-palette-color="#0080ff"><path d="M5.45 0L5.45 0Q5.15 0 5-0.15 4.85-0.3 4.85-0.6L4.85-0.6 4.85-36.4Q4.85-36.75 5.03-36.93 5.2-37.1 5.5-37.1L5.5-37.1 17.05-37.1Q23.7-37.1 27.33-34.65 30.95-32.2 30.95-27.5L30.95-27.5Q30.95-24.5 29.38-22.43 27.8-20.35 24.4-19.15L24.4-19.15Q24.2-19.1 24.2-18.95 24.2-18.8 24.4-18.75L24.4-18.75Q28-17.85 29.93-15.68 31.85-13.5 31.85-9.9L31.85-9.9Q31.85-4.9 28.1-2.45 24.35 0 17.4 0L17.4 0 5.45 0ZM10.1-3.5L17.15-3.5Q22.05-3.5 24.45-5.08 26.85-6.65 26.85-10.05L26.85-10.05Q26.85-12.5 25.65-14.03 24.45-15.55 22.4-16.25 20.35-16.95 17.7-16.95L17.7-16.95 10.35-16.95Q9.65-16.95 9.65-16.35L9.65-16.35 9.65-4.2Q9.65-3.5 10.1-3.5L10.1-3.5ZM10.1-20.55L17.7-20.55Q19.2-20.55 20.7-20.85 22.2-21.15 23.43-21.88 24.65-22.6 25.38-23.83 26.1-25.05 26.1-26.95L26.1-26.95Q26.1-30.35 23.63-31.98 21.15-33.6 17.05-33.6L17.05-33.6 10.3-33.6Q9.65-33.6 9.65-33L9.65-33 9.65-21.2Q9.65-20.55 10.1-20.55L10.1-20.55Z" opacity="1" transform="matrix(1,0,0,1,0,0)" fill="#0080ff" class="undefined-text-0" data-fill-palette-color="primary" id="text-0"></path></svg></g></svg></g><g transform="matrix(1,0,0,1,0,204.99159414240003)"><svg viewBox="0 0 130.1877412398922 6.995334222420882" height="6.995334222420882" width="130.1877412398922"><g transform="matrix(1,0,0,1,0,0)"><svg width="130.1877412398922" viewBox="2.8600001335144043 -35.81999969482422 827.3200073242188 44.459999084472656" height="6.995334222420882" data-palette-color="#0080ff"><path d="M2.86 0L2.86-32.4 13.65-32.4 13.65-17.92 23.61-17.92 23.61-11.55 13.65-11.55 13.65 0 2.86 0ZM21.02-25.93L15.36-25.93 15.36-32.4 31.81-32.4 31.81-21.66 21.02-21.66 21.02-25.93ZM52.07-25.93L62.86-25.93 62.86 0 52.07 0 52.07-25.93ZM45.55-25.93L45.55-6.47 50.36-6.47 50.36-3.25 47.24 0 41.26 0 34.76-6.47 34.76-25.93 45.55-25.93ZM83.56-6.47L83.56 0 73.99 0 67.94-6.05 67.94-35.82 78.73-35.82 78.73-6.47 83.56-6.47ZM101.95-6.47L101.95 0 92.38 0 86.32-6.05 86.32-35.82 97.11-35.82 97.11-6.47 101.95-6.47ZM142.32 0L137.98 0 137.98-12.13 123.96-12.13 117.47-18.63 117.47-25.93 123.96-32.4 127.62-32.4 127.62-20.9 142.52-20.9 148.79-14.4 148.79-6.47 142.32 0ZM137.98-26.56L129.33-26.56 129.33-32.4 142.3-32.4 147.91-26.76 147.91-23.32 137.98-23.32 137.98-26.56ZM117.47-6.47L117.47-9.72 128.26-9.72 128.26-5.86 136.27-5.86 136.27 0 122.91 0 117.47-6.47ZM164.78-32.4L164.78-6.47 171.91-6.47 171.91 0 160.48 0 153.99-6.47 153.99-19.46 151.84-19.46 151.84-25.93 153.99-25.93 153.99-28.74 164.78-32.4ZM172.3-19.46L166.49-19.46 166.49-25.93 172.3-25.93 172.3-19.46ZM203.67 0L193.12 0 193.12-19.46 177.77-19.46 177.77-22.68 181.01-25.93 197.2-25.93 203.67-19.46 203.67 0ZM179.94-15.09L191.41-15.09 191.41-10.6 185.85-10.6 185.85-6.05 191.41-6.05 191.41-3.2 188.19 0 179.94 0 175.59-4.27 175.59-10.77 179.94-15.09ZM219.1-25.93L219.1 0 214.77 0 208.31-6.47 208.31-19.46 214.77-25.93 219.1-25.93ZM225.59-19.46L220.81-19.46 220.81-25.93 229.91-25.93 236.38-19.46 236.38-15.58 225.59-15.58 225.59-19.46ZM229.91 0L220.81 0 220.81-6.05 225.59-6.05 225.59-9.3 236.38-9.3 236.38-6.47 229.91 0ZM251.61-35.82L251.61 0 240.82 0 240.82-35.82 251.61-35.82ZM269.44-25.9L253.3-3.66 253.3-18.46 258.28-25.88 269.44-25.9ZM262.87-13.82L270 0 258.28 0 256.5-5.22 262.87-13.82ZM310.47 0L306.12 0 306.12-12.13 292.11-12.13 285.62-18.63 285.62-25.93 292.11-32.4 295.77-32.4 295.77-20.9 310.67-20.9 316.94-14.4 316.94-6.47 310.47 0ZM306.12-26.56L297.48-26.56 297.48-32.4 310.45-32.4 316.06-26.76 316.06-23.32 306.12-23.32 306.12-26.56ZM285.62-6.47L285.62-9.72 296.41-9.72 296.41-5.86 304.42-5.86 304.42 0 291.06 0 285.62-6.47ZM350.75-19.46L350.75-6.47 344.28 0 337.05 0 337.05-6.05 339.74-6.05 339.74-19.46 337.05-19.46 337.05-25.93 344.28-25.93 350.75-19.46ZM332.54-19.46L332.54-6.05 335.35-6.05 335.35 0 328.1 0 321.63-6.47 321.63-19.46 328.1-25.93 335.35-25.93 335.35-19.46 332.54-19.46ZM375.19-29.35L367.37-29.35 367.37 0 356.56 0 356.56-19.46 354-19.46 354-25.93 356.56-25.93 356.56-29.76 363.08-35.82 375.19-35.82 375.19-29.35ZM375.19-19.46L369.01-19.46 369.08-25.93 375.19-25.93 375.19-19.46ZM388.83-32.4L388.83-6.47 395.96-6.47 395.96 0 384.54 0 378.04-6.47 378.04-19.46 375.89-19.46 375.89-25.93 378.04-25.93 378.04-28.74 388.83-32.4ZM396.35-19.46L390.54-19.46 390.54-25.93 396.35-25.93 396.35-19.46ZM406.51 0L397.2-25.93 407.51-25.93 411.73-12.43 414.73-21.78 418.61-9.84 415.54 0.02 415.51 0 406.51 0ZM423.62 0L414.88-25.93 425.06-25.93 433.41 0 423.62 0ZM442.96-25.93L434.48-1.61 429.94-15.58 432.85-25.93 442.96-25.93ZM472.79 0L462.24 0 462.24-19.46 446.88-19.46 446.88-22.68 450.13-25.93 466.32-25.93 472.79-19.46 472.79 0ZM449.06-15.09L460.53-15.09 460.53-10.6 454.96-10.6 454.96-6.05 460.53-6.05 460.53-3.2 457.31 0 449.06 0 444.71-4.27 444.71-10.77 449.06-15.09ZM494.76-13.16L494.76-19.46 490.17-19.46 490.17-22.29 493.78-25.93 500.32-25.93 505.57-19.87 505.57-13.16 494.76-13.16ZM488.43 0L477.64 0 477.64-25.93 488.43-25.93 488.43 0ZM519.46-25.93L519.46 0 515.14 0 508.67-6.47 508.67-19.46 515.14-25.93 519.46-25.93ZM536.8-10.4L521.17-10.4 521.17-14.92 526.86-14.92 526.86-19.46 521.17-19.46 521.17-25.93 530.33-25.93 536.8-19.46 536.8-10.4ZM532.45 0L521.17 0 521.17-6.05 535.67-6.05 535.67-3.25 532.45 0ZM579.47 0L567.14 0 567.14-6.47 575.15-6.47 575.15-25.93 567.14-25.93 567.14-32.4 579.47-32.4 585.96-25.93 585.96-6.47 579.47 0ZM554.64 0L554.64-32.4 565.43-32.4 565.43 0 554.64 0ZM601.17-25.93L601.17 0 596.85 0 590.38-6.47 590.38-19.46 596.85-25.93 601.17-25.93ZM618.5-10.4L602.88-10.4 602.88-14.92 608.57-14.92 608.57-19.46 602.88-19.46 602.88-25.93 612.03-25.93 618.5-19.46 618.5-10.4ZM614.16 0L602.88 0 602.88-6.05 617.38-6.05 617.38-3.25 614.16 0ZM629.9 0L620.21-25.93 630.93-25.93 640.15 0 629.9 0ZM649.99-25.93L641.25-1.44 636.42-15.16 639.91-25.93 649.99-25.93ZM662.76-25.93L662.76 0 658.44 0 651.97-6.47 651.97-19.46 658.44-25.93 662.76-25.93ZM680.09-10.4L664.47-10.4 664.47-14.92 670.16-14.92 670.16-19.46 664.47-19.46 664.47-25.93 673.62-25.93 680.09-19.46 680.09-10.4ZM675.75 0L664.47 0 664.47-6.05 678.97-6.05 678.97-3.25 675.75 0ZM700.31-6.47L700.31 0 690.74 0 684.68-6.05 684.68-35.82 695.47-35.82 695.47-6.47 700.31-6.47ZM731.97-19.46L731.97-6.47 725.5 0 718.27 0 718.27-6.05 720.96-6.05 720.96-19.46 718.27-19.46 718.27-25.93 725.5-25.93 731.97-19.46ZM713.76-19.46L713.76-6.05 716.56-6.05 716.56 0 709.31 0 702.84-6.47 702.84-19.46 709.31-25.93 716.56-25.93 716.56-19.46 713.76-19.46ZM747.62 8.64L736.82 8.64 736.82-25.93 747.62-25.93 747.62 8.64ZM754.09-6.05L754.09-19.46 749.32-19.46 749.32-22.73 752.5-25.93 758.41-25.93 764.9-19.46 764.9-6.47 758.41 0 749.32 0 749.32-6.05 754.09-6.05ZM780.33-25.93L780.33 0 776.01 0 769.54-6.47 769.54-19.46 776.01-25.93 780.33-25.93ZM797.66-10.4L782.04-10.4 782.04-14.92 787.73-14.92 787.73-19.46 782.04-19.46 782.04-25.93 791.19-25.93 797.66-19.46 797.66-10.4ZM793.32 0L782.04 0 782.04-6.05 796.54-6.05 796.54-3.25 793.32 0ZM819.36-13.16L819.36-19.46 814.77-19.46 814.77-22.29 818.39-25.93 824.93-25.93 830.18-19.87 830.18-13.16 819.36-13.16ZM813.04 0L802.25 0 802.25-25.93 813.04-25.93 813.04 0Z" opacity="1" transform="matrix(1,0,0,1,0,0)" fill="#0080ff" class="undefined-text-1" data-fill-palette-color="secondary" id="text-1"></path></svg></g></svg></g></svg></g></svg></g><g></g></svg></g></svg></g></svg></g></svg></g><defs></defs></svg><rect width="320" height="360" fill="none" stroke="none" visibility="hidden"></rect></g></svg></g></svg>